<mxfile host="Electron" modified="2024-05-30T20:02:47.233Z" agent="Mozilla/5.0 (Windows NT 10.0; Win64; x64) AppleWebKit/537.36 (KHTML, like Gecko) draw.io/24.4.8 Chrome/124.0.6367.207 Electron/30.0.6 Safari/537.36" etag="t7U3uIxDYGeGNbT_Rm0Z" version="24.4.8" type="device">
  <diagram name="Seite-1" id="mrp9XBmPVXelt326irSC">
    <mxGraphModel dx="2074" dy="1197" grid="1" gridSize="10" guides="1" tooltips="1" connect="1" arrows="1" fold="1" page="1" pageScale="1" pageWidth="2336" pageHeight="1654" math="0" shadow="0">
      <root>
        <mxCell id="0" />
        <mxCell id="1" parent="0" />
        <mxCell id="gFK525PEp-ipY-3nxmcJ-1" value="" style="endArrow=classic;html=1;rounded=0;" parent="1" edge="1">
          <mxGeometry width="50" height="50" relative="1" as="geometry">
            <mxPoint x="400" y="600" as="sourcePoint" />
            <mxPoint x="1440" y="600" as="targetPoint" />
          </mxGeometry>
        </mxCell>
        <mxCell id="gFK525PEp-ipY-3nxmcJ-2" value="" style="endArrow=classic;html=1;rounded=0;" parent="1" edge="1">
          <mxGeometry width="50" height="50" relative="1" as="geometry">
            <mxPoint x="400" y="600" as="sourcePoint" />
            <mxPoint x="400" y="80" as="targetPoint" />
          </mxGeometry>
        </mxCell>
        <mxCell id="gFK525PEp-ipY-3nxmcJ-3" value="" style="rounded=0;whiteSpace=wrap;html=1;fillColor=#fff2cc;strokeColor=#d6b656;" parent="1" vertex="1">
          <mxGeometry x="400" y="280" width="120" height="320" as="geometry" />
        </mxCell>
        <mxCell id="gFK525PEp-ipY-3nxmcJ-4" value="" style="rounded=0;whiteSpace=wrap;html=1;fillColor=#fff2cc;strokeColor=#d6b656;" parent="1" vertex="1">
          <mxGeometry x="560" y="280" width="120" height="320" as="geometry" />
        </mxCell>
        <mxCell id="gFK525PEp-ipY-3nxmcJ-5" value="" style="rounded=0;whiteSpace=wrap;html=1;fillColor=#fff2cc;strokeColor=#d6b656;" parent="1" vertex="1">
          <mxGeometry x="720" y="280" width="120" height="320" as="geometry" />
        </mxCell>
        <mxCell id="gFK525PEp-ipY-3nxmcJ-6" value="" style="endArrow=none;html=1;rounded=0;exitX=0;exitY=0;exitDx=0;exitDy=0;" parent="1" source="gFK525PEp-ipY-3nxmcJ-3" edge="1">
          <mxGeometry width="50" height="50" relative="1" as="geometry">
            <mxPoint x="1020" y="430" as="sourcePoint" />
            <mxPoint x="560" y="120" as="targetPoint" />
          </mxGeometry>
        </mxCell>
        <mxCell id="gFK525PEp-ipY-3nxmcJ-7" value="" style="endArrow=none;html=1;rounded=0;exitX=0;exitY=0;exitDx=0;exitDy=0;" parent="1" edge="1">
          <mxGeometry width="50" height="50" relative="1" as="geometry">
            <mxPoint x="560" y="280" as="sourcePoint" />
            <mxPoint x="720" y="120" as="targetPoint" />
          </mxGeometry>
        </mxCell>
        <mxCell id="gFK525PEp-ipY-3nxmcJ-8" value="" style="endArrow=none;html=1;rounded=0;exitX=0;exitY=0;exitDx=0;exitDy=0;" parent="1" edge="1">
          <mxGeometry width="50" height="50" relative="1" as="geometry">
            <mxPoint x="720" y="280" as="sourcePoint" />
            <mxPoint x="880" y="120" as="targetPoint" />
          </mxGeometry>
        </mxCell>
        <mxCell id="gFK525PEp-ipY-3nxmcJ-9" value="" style="endArrow=none;dashed=1;html=1;dashPattern=1 3;strokeWidth=2;rounded=0;exitX=1;exitY=0;exitDx=0;exitDy=0;" parent="1" source="gFK525PEp-ipY-3nxmcJ-3" edge="1">
          <mxGeometry width="50" height="50" relative="1" as="geometry">
            <mxPoint x="1020" y="430" as="sourcePoint" />
            <mxPoint x="520" y="160" as="targetPoint" />
          </mxGeometry>
        </mxCell>
        <mxCell id="gFK525PEp-ipY-3nxmcJ-10" value="" style="endArrow=none;dashed=1;html=1;dashPattern=1 3;strokeWidth=2;rounded=0;" parent="1" edge="1">
          <mxGeometry width="50" height="50" relative="1" as="geometry">
            <mxPoint x="400" y="160" as="sourcePoint" />
            <mxPoint x="880" y="160" as="targetPoint" />
          </mxGeometry>
        </mxCell>
        <mxCell id="gFK525PEp-ipY-3nxmcJ-11" value="" style="endArrow=none;html=1;rounded=0;" parent="1" edge="1">
          <mxGeometry width="50" height="50" relative="1" as="geometry">
            <mxPoint x="560" y="630" as="sourcePoint" />
            <mxPoint x="560" y="600" as="targetPoint" />
          </mxGeometry>
        </mxCell>
        <mxCell id="gFK525PEp-ipY-3nxmcJ-12" value="" style="endArrow=none;html=1;rounded=0;" parent="1" edge="1">
          <mxGeometry width="50" height="50" relative="1" as="geometry">
            <mxPoint x="720" y="620" as="sourcePoint" />
            <mxPoint x="720" y="590" as="targetPoint" />
          </mxGeometry>
        </mxCell>
        <mxCell id="gFK525PEp-ipY-3nxmcJ-13" value="" style="endArrow=none;html=1;rounded=0;" parent="1" edge="1">
          <mxGeometry width="50" height="50" relative="1" as="geometry">
            <mxPoint x="880" y="630" as="sourcePoint" />
            <mxPoint x="880" y="600" as="targetPoint" />
          </mxGeometry>
        </mxCell>
        <mxCell id="gFK525PEp-ipY-3nxmcJ-14" value="" style="endArrow=classic;html=1;rounded=0;" parent="1" edge="1">
          <mxGeometry relative="1" as="geometry">
            <mxPoint x="400" y="640" as="sourcePoint" />
            <mxPoint x="560" y="640" as="targetPoint" />
            <Array as="points" />
          </mxGeometry>
        </mxCell>
        <mxCell id="gFK525PEp-ipY-3nxmcJ-15" value="Label" style="edgeLabel;resizable=0;html=1;;align=center;verticalAlign=middle;" parent="gFK525PEp-ipY-3nxmcJ-14" connectable="0" vertex="1">
          <mxGeometry relative="1" as="geometry" />
        </mxCell>
        <mxCell id="gFK525PEp-ipY-3nxmcJ-16" value="Periode" style="edgeLabel;html=1;align=center;verticalAlign=middle;resizable=0;points=[];" parent="gFK525PEp-ipY-3nxmcJ-14" vertex="1" connectable="0">
          <mxGeometry x="0.0458" y="-3" relative="1" as="geometry">
            <mxPoint as="offset" />
          </mxGeometry>
        </mxCell>
        <mxCell id="gFK525PEp-ipY-3nxmcJ-19" value="" style="endArrow=classic;html=1;rounded=0;" parent="1" edge="1">
          <mxGeometry relative="1" as="geometry">
            <mxPoint x="560" y="640" as="sourcePoint" />
            <mxPoint x="720" y="640" as="targetPoint" />
            <Array as="points" />
          </mxGeometry>
        </mxCell>
        <mxCell id="gFK525PEp-ipY-3nxmcJ-20" value="Label" style="edgeLabel;resizable=0;html=1;;align=center;verticalAlign=middle;" parent="gFK525PEp-ipY-3nxmcJ-19" connectable="0" vertex="1">
          <mxGeometry relative="1" as="geometry" />
        </mxCell>
        <mxCell id="gFK525PEp-ipY-3nxmcJ-21" value="Periode" style="edgeLabel;html=1;align=center;verticalAlign=middle;resizable=0;points=[];" parent="gFK525PEp-ipY-3nxmcJ-19" vertex="1" connectable="0">
          <mxGeometry x="0.0458" y="-3" relative="1" as="geometry">
            <mxPoint as="offset" />
          </mxGeometry>
        </mxCell>
        <mxCell id="gFK525PEp-ipY-3nxmcJ-22" value="&lt;font style=&quot;font-size: 24px;&quot;&gt;0&lt;/font&gt;" style="text;html=1;align=center;verticalAlign=middle;whiteSpace=wrap;rounded=0;" parent="1" vertex="1">
          <mxGeometry x="270" y="260" width="60" height="30" as="geometry" />
        </mxCell>
        <mxCell id="gFK525PEp-ipY-3nxmcJ-23" value="&lt;font style=&quot;font-size: 18px;&quot;&gt;255&lt;/font&gt;" style="text;html=1;align=center;verticalAlign=middle;whiteSpace=wrap;rounded=0;" parent="1" vertex="1">
          <mxGeometry x="270" y="100" width="60" height="30" as="geometry" />
        </mxCell>
        <mxCell id="gFK525PEp-ipY-3nxmcJ-24" value="" style="endArrow=none;dashed=1;html=1;rounded=0;" parent="1" edge="1">
          <mxGeometry width="50" height="50" relative="1" as="geometry">
            <mxPoint x="400" y="120" as="sourcePoint" />
            <mxPoint x="560" y="120" as="targetPoint" />
          </mxGeometry>
        </mxCell>
        <mxCell id="gFK525PEp-ipY-3nxmcJ-26" value="&lt;font style=&quot;font-size: 18px;&quot;&gt;OCR0A (196)&lt;/font&gt;" style="text;html=1;align=center;verticalAlign=middle;whiteSpace=wrap;rounded=0;" parent="1" vertex="1">
          <mxGeometry x="220" y="140" width="160" height="30" as="geometry" />
        </mxCell>
        <mxCell id="gFK525PEp-ipY-3nxmcJ-30" value="" style="endArrow=classic;html=1;rounded=0;entryX=0.983;entryY=0.913;entryDx=0;entryDy=0;entryPerimeter=0;" parent="1" target="gFK525PEp-ipY-3nxmcJ-3" edge="1">
          <mxGeometry relative="1" as="geometry">
            <mxPoint x="400" y="570" as="sourcePoint" />
            <mxPoint x="500" y="570" as="targetPoint" />
          </mxGeometry>
        </mxCell>
        <mxCell id="gFK525PEp-ipY-3nxmcJ-31" value="Label" style="edgeLabel;resizable=0;html=1;;align=center;verticalAlign=middle;" parent="gFK525PEp-ipY-3nxmcJ-30" connectable="0" vertex="1">
          <mxGeometry relative="1" as="geometry" />
        </mxCell>
        <mxCell id="gFK525PEp-ipY-3nxmcJ-32" value="Duty Cycle" style="edgeLabel;html=1;align=center;verticalAlign=middle;resizable=0;points=[];" parent="gFK525PEp-ipY-3nxmcJ-30" vertex="1" connectable="0">
          <mxGeometry x="0.0295" y="-3" relative="1" as="geometry">
            <mxPoint as="offset" />
          </mxGeometry>
        </mxCell>
        <mxCell id="gFK525PEp-ipY-3nxmcJ-33" value="" style="endArrow=classic;html=1;rounded=0;entryX=0.983;entryY=0.913;entryDx=0;entryDy=0;entryPerimeter=0;" parent="1" edge="1">
          <mxGeometry relative="1" as="geometry">
            <mxPoint x="560" y="570" as="sourcePoint" />
            <mxPoint x="678" y="572" as="targetPoint" />
          </mxGeometry>
        </mxCell>
        <mxCell id="gFK525PEp-ipY-3nxmcJ-34" value="Label" style="edgeLabel;resizable=0;html=1;;align=center;verticalAlign=middle;" parent="gFK525PEp-ipY-3nxmcJ-33" connectable="0" vertex="1">
          <mxGeometry relative="1" as="geometry" />
        </mxCell>
        <mxCell id="gFK525PEp-ipY-3nxmcJ-35" value="Duty Cycle" style="edgeLabel;html=1;align=center;verticalAlign=middle;resizable=0;points=[];" parent="gFK525PEp-ipY-3nxmcJ-33" vertex="1" connectable="0">
          <mxGeometry x="0.0295" y="-3" relative="1" as="geometry">
            <mxPoint as="offset" />
          </mxGeometry>
        </mxCell>
        <mxCell id="gFK525PEp-ipY-3nxmcJ-37" value="" style="endArrow=classic;html=1;rounded=0;entryX=0.983;entryY=0.913;entryDx=0;entryDy=0;entryPerimeter=0;" parent="1" edge="1">
          <mxGeometry relative="1" as="geometry">
            <mxPoint x="720" y="570" as="sourcePoint" />
            <mxPoint x="838" y="572" as="targetPoint" />
          </mxGeometry>
        </mxCell>
        <mxCell id="gFK525PEp-ipY-3nxmcJ-38" value="Label" style="edgeLabel;resizable=0;html=1;;align=center;verticalAlign=middle;" parent="gFK525PEp-ipY-3nxmcJ-37" connectable="0" vertex="1">
          <mxGeometry relative="1" as="geometry" />
        </mxCell>
        <mxCell id="gFK525PEp-ipY-3nxmcJ-39" value="Duty Cycle" style="edgeLabel;html=1;align=center;verticalAlign=middle;resizable=0;points=[];" parent="gFK525PEp-ipY-3nxmcJ-37" vertex="1" connectable="0">
          <mxGeometry x="0.0295" y="-3" relative="1" as="geometry">
            <mxPoint as="offset" />
          </mxGeometry>
        </mxCell>
        <mxCell id="gFK525PEp-ipY-3nxmcJ-40" value="" style="endArrow=classic;html=1;rounded=0;" parent="1" edge="1">
          <mxGeometry relative="1" as="geometry">
            <mxPoint x="720" y="640" as="sourcePoint" />
            <mxPoint x="880" y="640" as="targetPoint" />
            <Array as="points" />
          </mxGeometry>
        </mxCell>
        <mxCell id="gFK525PEp-ipY-3nxmcJ-41" value="Label" style="edgeLabel;resizable=0;html=1;;align=center;verticalAlign=middle;" parent="gFK525PEp-ipY-3nxmcJ-40" connectable="0" vertex="1">
          <mxGeometry relative="1" as="geometry" />
        </mxCell>
        <mxCell id="gFK525PEp-ipY-3nxmcJ-42" value="Periode" style="edgeLabel;html=1;align=center;verticalAlign=middle;resizable=0;points=[];" parent="gFK525PEp-ipY-3nxmcJ-40" vertex="1" connectable="0">
          <mxGeometry x="0.0458" y="-3" relative="1" as="geometry">
            <mxPoint as="offset" />
          </mxGeometry>
        </mxCell>
        <mxCell id="QY4ZaA-OiNYHafw3yUTT-2" value="" style="endArrow=none;html=1;rounded=0;hachureGap=4;fontFamily=Architects Daughter;fontSource=https%3A%2F%2Ffonts.googleapis.com%2Fcss%3Ffamily%3DArchitects%2BDaughter;entryX=0.022;entryY=0.025;entryDx=0;entryDy=0;entryPerimeter=0;" parent="1" target="gFK525PEp-ipY-3nxmcJ-4" edge="1">
          <mxGeometry width="50" height="50" relative="1" as="geometry">
            <mxPoint x="560" y="120" as="sourcePoint" />
            <mxPoint x="1070" y="590" as="targetPoint" />
          </mxGeometry>
        </mxCell>
        <mxCell id="QY4ZaA-OiNYHafw3yUTT-4" value="" style="endArrow=none;html=1;rounded=0;exitX=0.006;exitY=0.048;exitDx=0;exitDy=0;exitPerimeter=0;" parent="1" source="gFK525PEp-ipY-3nxmcJ-5" edge="1">
          <mxGeometry width="50" height="50" relative="1" as="geometry">
            <mxPoint x="1020" y="640" as="sourcePoint" />
            <mxPoint x="720" y="120" as="targetPoint" />
          </mxGeometry>
        </mxCell>
        <mxCell id="QY4ZaA-OiNYHafw3yUTT-5" value="" style="endArrow=none;html=1;rounded=0;" parent="1" edge="1">
          <mxGeometry width="50" height="50" relative="1" as="geometry">
            <mxPoint x="880" y="280" as="sourcePoint" />
            <mxPoint x="880" y="120" as="targetPoint" />
          </mxGeometry>
        </mxCell>
        <mxCell id="zsRHu77U-iFJ184WPaFv-1" value="" style="endArrow=classic;html=1;rounded=0;" edge="1" parent="1">
          <mxGeometry width="50" height="50" relative="1" as="geometry">
            <mxPoint x="400" y="1210" as="sourcePoint" />
            <mxPoint x="1440" y="1210" as="targetPoint" />
          </mxGeometry>
        </mxCell>
        <mxCell id="zsRHu77U-iFJ184WPaFv-2" value="" style="endArrow=classic;html=1;rounded=0;" edge="1" parent="1">
          <mxGeometry width="50" height="50" relative="1" as="geometry">
            <mxPoint x="400" y="1210" as="sourcePoint" />
            <mxPoint x="400" y="690" as="targetPoint" />
          </mxGeometry>
        </mxCell>
        <mxCell id="zsRHu77U-iFJ184WPaFv-3" value="" style="rounded=0;whiteSpace=wrap;html=1;fillColor=#fff2cc;strokeColor=#d6b656;" vertex="1" parent="1">
          <mxGeometry x="400" y="890" width="120" height="320" as="geometry" />
        </mxCell>
        <mxCell id="zsRHu77U-iFJ184WPaFv-4" value="" style="rounded=0;whiteSpace=wrap;html=1;fillColor=#f8cecc;strokeColor=#b85450;" vertex="1" parent="1">
          <mxGeometry x="600" y="890" width="120" height="320" as="geometry" />
        </mxCell>
        <mxCell id="zsRHu77U-iFJ184WPaFv-5" value="" style="rounded=0;whiteSpace=wrap;html=1;fillColor=#fff2cc;strokeColor=#d6b656;" vertex="1" parent="1">
          <mxGeometry x="720" y="890" width="120" height="320" as="geometry" />
        </mxCell>
        <mxCell id="zsRHu77U-iFJ184WPaFv-6" value="" style="endArrow=none;html=1;rounded=0;exitX=0;exitY=0;exitDx=0;exitDy=0;" edge="1" parent="1" source="zsRHu77U-iFJ184WPaFv-3">
          <mxGeometry width="50" height="50" relative="1" as="geometry">
            <mxPoint x="1020" y="1040" as="sourcePoint" />
            <mxPoint x="560" y="730" as="targetPoint" />
          </mxGeometry>
        </mxCell>
        <mxCell id="zsRHu77U-iFJ184WPaFv-7" value="" style="endArrow=none;html=1;rounded=0;entryX=1;entryY=0;entryDx=0;entryDy=0;" edge="1" parent="1" target="zsRHu77U-iFJ184WPaFv-4">
          <mxGeometry width="50" height="50" relative="1" as="geometry">
            <mxPoint x="560" y="730" as="sourcePoint" />
            <mxPoint x="720" y="730" as="targetPoint" />
          </mxGeometry>
        </mxCell>
        <mxCell id="zsRHu77U-iFJ184WPaFv-8" value="" style="endArrow=none;html=1;rounded=0;exitX=0;exitY=0;exitDx=0;exitDy=0;" edge="1" parent="1">
          <mxGeometry width="50" height="50" relative="1" as="geometry">
            <mxPoint x="720" y="890" as="sourcePoint" />
            <mxPoint x="880" y="730" as="targetPoint" />
          </mxGeometry>
        </mxCell>
        <mxCell id="zsRHu77U-iFJ184WPaFv-9" value="" style="endArrow=none;dashed=1;html=1;dashPattern=1 3;strokeWidth=2;rounded=0;exitX=1;exitY=0;exitDx=0;exitDy=0;" edge="1" parent="1" source="zsRHu77U-iFJ184WPaFv-3">
          <mxGeometry width="50" height="50" relative="1" as="geometry">
            <mxPoint x="1020" y="1040" as="sourcePoint" />
            <mxPoint x="520" y="770" as="targetPoint" />
          </mxGeometry>
        </mxCell>
        <mxCell id="zsRHu77U-iFJ184WPaFv-10" value="" style="endArrow=none;dashed=1;html=1;dashPattern=1 3;strokeWidth=2;rounded=0;" edge="1" parent="1">
          <mxGeometry width="50" height="50" relative="1" as="geometry">
            <mxPoint x="400" y="770" as="sourcePoint" />
            <mxPoint x="1040" y="770" as="targetPoint" />
          </mxGeometry>
        </mxCell>
        <mxCell id="zsRHu77U-iFJ184WPaFv-11" value="" style="endArrow=none;html=1;rounded=0;" edge="1" parent="1">
          <mxGeometry width="50" height="50" relative="1" as="geometry">
            <mxPoint x="560" y="1240" as="sourcePoint" />
            <mxPoint x="560" y="1210" as="targetPoint" />
          </mxGeometry>
        </mxCell>
        <mxCell id="zsRHu77U-iFJ184WPaFv-12" value="" style="endArrow=none;html=1;rounded=0;" edge="1" parent="1">
          <mxGeometry width="50" height="50" relative="1" as="geometry">
            <mxPoint x="720" y="1230" as="sourcePoint" />
            <mxPoint x="720" y="1200" as="targetPoint" />
          </mxGeometry>
        </mxCell>
        <mxCell id="zsRHu77U-iFJ184WPaFv-13" value="" style="endArrow=none;html=1;rounded=0;" edge="1" parent="1">
          <mxGeometry width="50" height="50" relative="1" as="geometry">
            <mxPoint x="880" y="1240" as="sourcePoint" />
            <mxPoint x="880" y="1210" as="targetPoint" />
          </mxGeometry>
        </mxCell>
        <mxCell id="zsRHu77U-iFJ184WPaFv-14" value="" style="endArrow=classic;html=1;rounded=0;" edge="1" parent="1">
          <mxGeometry relative="1" as="geometry">
            <mxPoint x="400" y="1250" as="sourcePoint" />
            <mxPoint x="560" y="1250" as="targetPoint" />
            <Array as="points" />
          </mxGeometry>
        </mxCell>
        <mxCell id="zsRHu77U-iFJ184WPaFv-15" value="Label" style="edgeLabel;resizable=0;html=1;;align=center;verticalAlign=middle;" connectable="0" vertex="1" parent="zsRHu77U-iFJ184WPaFv-14">
          <mxGeometry relative="1" as="geometry" />
        </mxCell>
        <mxCell id="zsRHu77U-iFJ184WPaFv-16" value="Periode" style="edgeLabel;html=1;align=center;verticalAlign=middle;resizable=0;points=[];" vertex="1" connectable="0" parent="zsRHu77U-iFJ184WPaFv-14">
          <mxGeometry x="0.0458" y="-3" relative="1" as="geometry">
            <mxPoint as="offset" />
          </mxGeometry>
        </mxCell>
        <mxCell id="zsRHu77U-iFJ184WPaFv-17" value="" style="endArrow=classic;html=1;rounded=0;" edge="1" parent="1">
          <mxGeometry relative="1" as="geometry">
            <mxPoint x="560" y="1250" as="sourcePoint" />
            <mxPoint x="720" y="1250" as="targetPoint" />
            <Array as="points" />
          </mxGeometry>
        </mxCell>
        <mxCell id="zsRHu77U-iFJ184WPaFv-18" value="Label" style="edgeLabel;resizable=0;html=1;;align=center;verticalAlign=middle;" connectable="0" vertex="1" parent="zsRHu77U-iFJ184WPaFv-17">
          <mxGeometry relative="1" as="geometry" />
        </mxCell>
        <mxCell id="zsRHu77U-iFJ184WPaFv-19" value="Periode" style="edgeLabel;html=1;align=center;verticalAlign=middle;resizable=0;points=[];" vertex="1" connectable="0" parent="zsRHu77U-iFJ184WPaFv-17">
          <mxGeometry x="0.0458" y="-3" relative="1" as="geometry">
            <mxPoint as="offset" />
          </mxGeometry>
        </mxCell>
        <mxCell id="zsRHu77U-iFJ184WPaFv-20" value="&lt;font style=&quot;font-size: 24px;&quot;&gt;0&lt;/font&gt;" style="text;html=1;align=center;verticalAlign=middle;whiteSpace=wrap;rounded=0;" vertex="1" parent="1">
          <mxGeometry x="270" y="870" width="60" height="30" as="geometry" />
        </mxCell>
        <mxCell id="zsRHu77U-iFJ184WPaFv-21" value="&lt;font style=&quot;font-size: 18px;&quot;&gt;255&lt;/font&gt;" style="text;html=1;align=center;verticalAlign=middle;whiteSpace=wrap;rounded=0;" vertex="1" parent="1">
          <mxGeometry x="270" y="710" width="60" height="30" as="geometry" />
        </mxCell>
        <mxCell id="zsRHu77U-iFJ184WPaFv-22" value="" style="endArrow=none;dashed=1;html=1;rounded=0;" edge="1" parent="1">
          <mxGeometry width="50" height="50" relative="1" as="geometry">
            <mxPoint x="400" y="730" as="sourcePoint" />
            <mxPoint x="560" y="730" as="targetPoint" />
          </mxGeometry>
        </mxCell>
        <mxCell id="zsRHu77U-iFJ184WPaFv-23" value="&lt;font style=&quot;font-size: 18px;&quot;&gt;OCR0A (196)&lt;/font&gt;" style="text;html=1;align=center;verticalAlign=middle;whiteSpace=wrap;rounded=0;" vertex="1" parent="1">
          <mxGeometry x="220" y="750" width="160" height="30" as="geometry" />
        </mxCell>
        <mxCell id="zsRHu77U-iFJ184WPaFv-24" value="" style="endArrow=classic;html=1;rounded=0;entryX=0.983;entryY=0.913;entryDx=0;entryDy=0;entryPerimeter=0;" edge="1" parent="1" target="zsRHu77U-iFJ184WPaFv-3">
          <mxGeometry relative="1" as="geometry">
            <mxPoint x="400" y="1180" as="sourcePoint" />
            <mxPoint x="500" y="1180" as="targetPoint" />
          </mxGeometry>
        </mxCell>
        <mxCell id="zsRHu77U-iFJ184WPaFv-25" value="Label" style="edgeLabel;resizable=0;html=1;;align=center;verticalAlign=middle;" connectable="0" vertex="1" parent="zsRHu77U-iFJ184WPaFv-24">
          <mxGeometry relative="1" as="geometry" />
        </mxCell>
        <mxCell id="zsRHu77U-iFJ184WPaFv-26" value="Duty Cycle" style="edgeLabel;html=1;align=center;verticalAlign=middle;resizable=0;points=[];" vertex="1" connectable="0" parent="zsRHu77U-iFJ184WPaFv-24">
          <mxGeometry x="0.0295" y="-3" relative="1" as="geometry">
            <mxPoint as="offset" />
          </mxGeometry>
        </mxCell>
        <mxCell id="zsRHu77U-iFJ184WPaFv-27" value="" style="endArrow=classic;html=1;rounded=0;entryX=0.983;entryY=0.913;entryDx=0;entryDy=0;entryPerimeter=0;" edge="1" parent="1">
          <mxGeometry relative="1" as="geometry">
            <mxPoint x="602" y="1180" as="sourcePoint" />
            <mxPoint x="720" y="1182" as="targetPoint" />
          </mxGeometry>
        </mxCell>
        <mxCell id="zsRHu77U-iFJ184WPaFv-28" value="Label" style="edgeLabel;resizable=0;html=1;;align=center;verticalAlign=middle;" connectable="0" vertex="1" parent="zsRHu77U-iFJ184WPaFv-27">
          <mxGeometry relative="1" as="geometry" />
        </mxCell>
        <mxCell id="zsRHu77U-iFJ184WPaFv-29" value="Duty Cycle" style="edgeLabel;html=1;align=center;verticalAlign=middle;resizable=0;points=[];" vertex="1" connectable="0" parent="zsRHu77U-iFJ184WPaFv-27">
          <mxGeometry x="0.0295" y="-3" relative="1" as="geometry">
            <mxPoint as="offset" />
          </mxGeometry>
        </mxCell>
        <mxCell id="zsRHu77U-iFJ184WPaFv-30" value="" style="endArrow=classic;html=1;rounded=0;entryX=0.983;entryY=0.913;entryDx=0;entryDy=0;entryPerimeter=0;" edge="1" parent="1">
          <mxGeometry relative="1" as="geometry">
            <mxPoint x="720" y="1180" as="sourcePoint" />
            <mxPoint x="838" y="1182" as="targetPoint" />
          </mxGeometry>
        </mxCell>
        <mxCell id="zsRHu77U-iFJ184WPaFv-31" value="Label" style="edgeLabel;resizable=0;html=1;;align=center;verticalAlign=middle;" connectable="0" vertex="1" parent="zsRHu77U-iFJ184WPaFv-30">
          <mxGeometry relative="1" as="geometry" />
        </mxCell>
        <mxCell id="zsRHu77U-iFJ184WPaFv-32" value="Duty Cycle" style="edgeLabel;html=1;align=center;verticalAlign=middle;resizable=0;points=[];" vertex="1" connectable="0" parent="zsRHu77U-iFJ184WPaFv-30">
          <mxGeometry x="0.0295" y="-3" relative="1" as="geometry">
            <mxPoint as="offset" />
          </mxGeometry>
        </mxCell>
        <mxCell id="zsRHu77U-iFJ184WPaFv-33" value="" style="endArrow=classic;html=1;rounded=0;" edge="1" parent="1">
          <mxGeometry relative="1" as="geometry">
            <mxPoint x="720" y="1250" as="sourcePoint" />
            <mxPoint x="880" y="1250" as="targetPoint" />
            <Array as="points" />
          </mxGeometry>
        </mxCell>
        <mxCell id="zsRHu77U-iFJ184WPaFv-34" value="Label" style="edgeLabel;resizable=0;html=1;;align=center;verticalAlign=middle;" connectable="0" vertex="1" parent="zsRHu77U-iFJ184WPaFv-33">
          <mxGeometry relative="1" as="geometry" />
        </mxCell>
        <mxCell id="zsRHu77U-iFJ184WPaFv-35" value="Periode" style="edgeLabel;html=1;align=center;verticalAlign=middle;resizable=0;points=[];" vertex="1" connectable="0" parent="zsRHu77U-iFJ184WPaFv-33">
          <mxGeometry x="0.0458" y="-3" relative="1" as="geometry">
            <mxPoint as="offset" />
          </mxGeometry>
        </mxCell>
        <mxCell id="zsRHu77U-iFJ184WPaFv-36" value="" style="rounded=0;whiteSpace=wrap;html=1;fillColor=#f8cecc;strokeColor=#b85450;" vertex="1" parent="1">
          <mxGeometry x="920" y="890" width="120" height="320" as="geometry" />
        </mxCell>
        <mxCell id="zsRHu77U-iFJ184WPaFv-37" value="" style="endArrow=none;html=1;rounded=0;" edge="1" parent="1">
          <mxGeometry width="50" height="50" relative="1" as="geometry">
            <mxPoint x="1040" y="1230" as="sourcePoint" />
            <mxPoint x="1040" y="1200" as="targetPoint" />
          </mxGeometry>
        </mxCell>
        <mxCell id="zsRHu77U-iFJ184WPaFv-38" value="" style="endArrow=classic;html=1;rounded=0;entryX=0.983;entryY=0.913;entryDx=0;entryDy=0;entryPerimeter=0;" edge="1" parent="1">
          <mxGeometry relative="1" as="geometry">
            <mxPoint x="922" y="1180" as="sourcePoint" />
            <mxPoint x="1040" y="1182" as="targetPoint" />
          </mxGeometry>
        </mxCell>
        <mxCell id="zsRHu77U-iFJ184WPaFv-39" value="Label" style="edgeLabel;resizable=0;html=1;;align=center;verticalAlign=middle;" connectable="0" vertex="1" parent="zsRHu77U-iFJ184WPaFv-38">
          <mxGeometry relative="1" as="geometry" />
        </mxCell>
        <mxCell id="zsRHu77U-iFJ184WPaFv-40" value="Duty Cycle" style="edgeLabel;html=1;align=center;verticalAlign=middle;resizable=0;points=[];" vertex="1" connectable="0" parent="zsRHu77U-iFJ184WPaFv-38">
          <mxGeometry x="0.0295" y="-3" relative="1" as="geometry">
            <mxPoint as="offset" />
          </mxGeometry>
        </mxCell>
        <mxCell id="zsRHu77U-iFJ184WPaFv-41" value="" style="endArrow=classic;html=1;rounded=0;" edge="1" parent="1">
          <mxGeometry relative="1" as="geometry">
            <mxPoint x="880" y="1250" as="sourcePoint" />
            <mxPoint x="1040" y="1250" as="targetPoint" />
            <Array as="points" />
          </mxGeometry>
        </mxCell>
        <mxCell id="zsRHu77U-iFJ184WPaFv-42" value="Label" style="edgeLabel;resizable=0;html=1;;align=center;verticalAlign=middle;" connectable="0" vertex="1" parent="zsRHu77U-iFJ184WPaFv-41">
          <mxGeometry relative="1" as="geometry" />
        </mxCell>
        <mxCell id="zsRHu77U-iFJ184WPaFv-43" value="Periode" style="edgeLabel;html=1;align=center;verticalAlign=middle;resizable=0;points=[];" vertex="1" connectable="0" parent="zsRHu77U-iFJ184WPaFv-41">
          <mxGeometry x="0.0458" y="-3" relative="1" as="geometry">
            <mxPoint as="offset" />
          </mxGeometry>
        </mxCell>
        <mxCell id="zsRHu77U-iFJ184WPaFv-44" value="" style="endArrow=none;html=1;rounded=0;entryX=1;entryY=0;entryDx=0;entryDy=0;" edge="1" parent="1">
          <mxGeometry width="50" height="50" relative="1" as="geometry">
            <mxPoint x="880" y="730" as="sourcePoint" />
            <mxPoint x="1040" y="890" as="targetPoint" />
          </mxGeometry>
        </mxCell>
        <mxCell id="zsRHu77U-iFJ184WPaFv-45" value="" style="endArrow=none;dashed=1;html=1;dashPattern=1 3;strokeWidth=2;rounded=0;" edge="1" parent="1">
          <mxGeometry width="50" height="50" relative="1" as="geometry">
            <mxPoint x="600" y="890" as="sourcePoint" />
            <mxPoint x="600" y="770" as="targetPoint" />
          </mxGeometry>
        </mxCell>
        <mxCell id="zsRHu77U-iFJ184WPaFv-46" value="" style="endArrow=none;dashed=1;html=1;dashPattern=1 3;strokeWidth=2;rounded=0;" edge="1" parent="1">
          <mxGeometry width="50" height="50" relative="1" as="geometry">
            <mxPoint x="839" y="890" as="sourcePoint" />
            <mxPoint x="839" y="770" as="targetPoint" />
          </mxGeometry>
        </mxCell>
        <mxCell id="zsRHu77U-iFJ184WPaFv-47" value="" style="endArrow=none;dashed=1;html=1;dashPattern=1 3;strokeWidth=2;rounded=0;" edge="1" parent="1">
          <mxGeometry width="50" height="50" relative="1" as="geometry">
            <mxPoint x="920" y="890" as="sourcePoint" />
            <mxPoint x="920" y="770" as="targetPoint" />
          </mxGeometry>
        </mxCell>
        <mxCell id="zsRHu77U-iFJ184WPaFv-48" value="" style="endArrow=none;dashed=1;html=1;dashPattern=1 3;strokeWidth=2;rounded=0;exitX=1;exitY=0;exitDx=0;exitDy=0;" edge="1" parent="1">
          <mxGeometry width="50" height="50" relative="1" as="geometry">
            <mxPoint x="680" y="270" as="sourcePoint" />
            <mxPoint x="680" y="150" as="targetPoint" />
          </mxGeometry>
        </mxCell>
        <mxCell id="zsRHu77U-iFJ184WPaFv-49" value="" style="endArrow=none;dashed=1;html=1;dashPattern=1 3;strokeWidth=2;rounded=0;exitX=1;exitY=0;exitDx=0;exitDy=0;" edge="1" parent="1">
          <mxGeometry width="50" height="50" relative="1" as="geometry">
            <mxPoint x="840" y="280" as="sourcePoint" />
            <mxPoint x="840" y="160" as="targetPoint" />
          </mxGeometry>
        </mxCell>
      </root>
    </mxGraphModel>
  </diagram>
</mxfile>
